<?xml version="1.0" standalone="no"?>
<!DOCTYPE svg PUBLIC "-//W3C//DTD SVG 20010904//EN"
 "http://www.w3.org/TR/2001/REC-SVG-20010904/DTD/svg10.dtd">
<svg version="1.0" xmlns="http://www.w3.org/2000/svg"
 width="338.000000pt" height="184.000000pt" viewBox="0 0 338.000000 184.000000"
 preserveAspectRatio="xMidYMid meet">

<g transform="translate(0.000000,184.000000) scale(0.100000,-0.100000)"
fill="#000000" stroke="none">
<path d="M1786 1756 c59 -62 130 -167 204 -302 l33 -62 -229 -248 c-126 -137
-232 -250 -236 -252 -20 -9 -4 -18 35 -20 l42 -3 194 253 c209 272 217 282
208 255 -4 -11 0 -22 13 -29 11 -7 20 -16 20 -21 0 -4 -5 -5 -12 -1 -7 4 -8 3
-4 -4 5 -9 -96 -200 -240 -448 l-23 -42 48 -20 49 -20 82 201 c45 111 88 214
94 228 9 17 10 32 3 47 -14 31 4 50 24 26 11 -14 11 -16 1 -10 -11 7 -11 4 0
-15 7 -13 19 -30 27 -39 13 -13 14 -12 8 9 -4 16 -3 21 4 14 6 -6 11 -20 12
-32 1 -11 5 -21 9 -21 11 0 11 3 -17 73 l-26 63 30 69 c16 39 36 87 45 108 27
61 10 42 -34 -40 -37 -70 -76 -125 -69 -98 2 6 -1 20 -5 33 -6 17 -3 30 11 45
18 22 18 22 -3 5 -27 -23 -32 -23 -30 2 0 12 19 37 41 56 l40 36 -41 -31 c-23
-17 -44 -31 -47 -31 -4 0 -25 33 -48 73 -87 149 -170 235 -245 251 -29 6 -27
4 32 -58z"/>
<path d="M1690 1706 c0 -2 11 -6 25 -8 13 -3 22 -1 19 3 -5 9 -44 13 -44 5z"/>
<path d="M1559 1669 l-24 -20 28 17 c15 9 27 18 27 20 0 8 -8 4 -31 -17z"/>
<path d="M1488 1612 c-35 -39 -86 -110 -107 -149 -20 -40 -4 -25 22 20 14 23
48 70 76 105 57 69 61 82 9 24z"/>
<path d="M1634 1628 l-19 -23 23 19 c21 18 27 26 19 26 -2 0 -12 -10 -23 -22z"/>
<path d="M2103 1448 c-20 -26 -26 -41 -15 -34 12 7 36 46 29 46 -3 0 -9 -6
-14 -12z"/>
<path d="M1690 1215 c-162 -123 -306 -230 -320 -238 -38 -20 -238 -172 -215
-162 49 19 139 45 158 45 14 0 127 91 307 246 157 136 305 263 330 285 24 21
42 40 40 43 -3 2 -138 -96 -300 -219z"/>
<path d="M1356 1413 c-6 -14 -5 -15 5 -6 7 7 10 15 7 18 -3 3 -9 -2 -12 -12z"/>
<path d="M1845 1273 c-82 -75 -216 -196 -296 -268 l-147 -132 47 4 c44 5 52
11 171 131 342 348 394 402 385 401 -6 0 -77 -61 -160 -136z"/>
<path d="M1854 1108 l-181 -245 39 -10 39 -10 145 243 c80 134 144 249 142
255 -2 6 -85 -99 -184 -233z"/>
<path d="M2100 1203 c0 -5 4 -14 9 -21 7 -11 9 -11 14 1 3 8 3 18 0 21 -9 8
-23 7 -23 -1z"/>
<path d="M2160 1181 c0 -6 4 -13 10 -16 6 -3 7 1 4 9 -7 18 -14 21 -14 7z"/>
<path d="M1813 748 c-13 -6 -23 -15 -23 -20 0 -5 11 -1 25 8 37 24 35 30 -2
12z"/>
<path d="M1663 705 c0 -27 2 -38 4 -22 2 15 2 37 0 50 -2 12 -4 0 -4 -28z"/>
<path d="M1882 713 c-2 -50 -22 -57 -53 -20 l-20 22 16 -27 c16 -26 21 -27 81
-24 35 1 66 5 69 8 3 2 -2 13 -10 24 -15 19 -16 19 -31 -3 -25 -36 -42 -28
-47 20 l-4 42 -1 -42z m78 -28 c0 -8 -4 -15 -10 -15 -5 0 -10 7 -10 15 0 8 5
15 10 15 6 0 10 -7 10 -15z"/>
<path d="M2101 713 c-1 -47 -22 -59 -41 -23 -6 11 -18 19 -28 19 -16 -1 -16
-2 1 -6 9 -2 17 -11 17 -19 0 -16 -12 -18 -25 -5 -6 6 -14 5 -21 -3 -9 -9 1
-12 45 -12 50 1 56 3 59 24 2 12 1 32 -1 45 -2 12 -5 3 -6 -20z"/>
<path d="M1269 693 c5 -19 14 -28 29 -29 20 -1 20 -1 2 3 -13 3 -20 12 -20 29
0 13 -4 24 -9 24 -5 0 -6 -12 -2 -27z"/>
<path d="M1233 696 c1 -11 9 -21 17 -23 10 -3 11 -2 4 4 -6 4 -14 15 -17 23
-5 11 -6 9 -4 -4z"/>
<path d="M1467 703 c-3 -5 5 -8 18 -8 13 0 21 3 18 8 -2 4 -10 7 -18 7 -8 0
-16 -3 -18 -7z"/>
<path d="M1544 695 c-7 -17 3 -35 19 -34 9 0 9 2 0 6 -15 5 -18 33 -3 33 5 0
14 -8 19 -17 6 -10 11 -13 11 -7 0 12 -20 34 -32 34 -5 0 -11 -7 -14 -15z"/>
<path d="M1715 700 c-8 -13 3 -30 18 -30 8 0 7 3 -2 9 -7 5 -10 14 -7 20 4 6
5 11 2 11 -3 0 -8 -4 -11 -10z"/>
<path d="M1370 684 c0 -12 -6 -15 -21 -11 -16 4 -19 3 -11 -5 14 -14 42 -3 42
17 0 8 -2 15 -5 15 -3 0 -5 -7 -5 -16z"/>
<path d="M1427 683 c4 -19 11 -22 56 -21 33 1 44 4 31 9 -10 4 -29 5 -42 2
-15 -4 -28 1 -37 13 -13 18 -14 18 -8 -3z"/>
<path d="M1759 678 c7 -10 25 -17 40 -17 l26 2 -25 4 c-14 3 -32 10 -40 16
-13 11 -13 10 -1 -5z"/>
<path d="M1131 548 c1 -29 4 -43 6 -30 5 28 29 29 38 1 4 -11 9 -18 12 -16 2
3 0 14 -6 25 -7 13 -7 22 1 30 15 15 -7 42 -33 42 -16 0 -19 -7 -18 -52z m44
22 c0 -8 -8 -16 -17 -18 -13 -2 -18 3 -18 18 0 15 5 20 18 18 9 -2 17 -10 17
-18z"/>
<path d="M1763 550 c0 -30 2 -43 4 -27 2 15 2 39 0 55 -2 15 -4 2 -4 -28z"/>
<path d="M1910 586 c0 -9 5 -16 10 -16 6 0 10 4 10 9 0 6 -4 13 -10 16 -5 3
-10 -1 -10 -9z"/>
<path d="M1976 591 c-4 -7 -5 -15 -2 -18 9 -9 19 4 14 18 -4 11 -6 11 -12 0z"/>
<path d="M1375 558 c19 -11 19 -11 0 -19 -18 -7 -18 -8 -2 -8 10 -1 16 -5 12
-10 -3 -5 -1 -12 5 -16 14 -9 13 38 -2 53 -7 7 -17 12 -22 12 -6 0 -2 -6 9
-12z"/>
<path d="M1424 541 c0 -21 7 -36 16 -38 10 -3 11 -2 3 4 -6 4 -13 22 -16 38
-4 27 -5 27 -3 -4z"/>
<path d="M1462 540 c0 -19 2 -27 5 -17 2 9 2 25 0 35 -3 9 -5 1 -5 -18z"/>
<path d="M1567 563 c6 -4 13 -22 16 -38 4 -27 5 -27 3 4 0 21 -7 36 -16 38
-10 3 -11 2 -3 -4z"/>
<path d="M1630 566 c0 -2 7 -7 16 -10 8 -3 12 -2 9 4 -6 10 -25 14 -25 6z"/>
<path d="M1719 554 c-14 -18 -3 -45 22 -51 8 -3 7 0 -3 7 -10 6 -18 17 -18 25
0 8 8 19 18 24 9 6 12 11 6 11 -6 0 -17 -7 -25 -16z"/>
<path d="M1804 541 c0 -21 7 -36 16 -38 10 -3 11 -2 3 4 -6 4 -13 22 -16 38
-4 27 -5 27 -3 -4z"/>
<path d="M1842 540 c0 -19 2 -27 5 -17 2 9 2 25 0 35 -3 9 -5 1 -5 -18z"/>
<path d="M2045 558 c19 -11 19 -11 0 -19 -18 -7 -18 -8 -2 -8 10 -1 16 -5 12
-10 -3 -5 -1 -12 5 -16 14 -9 13 38 -2 53 -7 7 -17 12 -22 12 -6 0 -2 -6 9
-12z"/>
<path d="M1203 544 c-3 -8 -2 -19 3 -24 5 -5 9 1 9 16 0 28 -3 30 -12 8z"/>
<path d="M1255 535 c0 -13 3 -21 8 -18 4 2 7 10 7 18 0 8 -3 16 -7 18 -5 3 -8
-5 -8 -18z"/>
<path d="M1502 530 c0 -19 2 -27 5 -17 2 9 2 25 0 35 -3 9 -5 1 -5 -18z"/>
<path d="M1542 530 c0 -19 2 -27 5 -17 2 9 2 25 0 35 -3 9 -5 1 -5 -18z"/>
<path d="M2092 530 c0 -19 2 -27 5 -17 2 9 2 25 0 35 -3 9 -5 1 -5 -18z"/>
<path d="M2132 535 c0 -16 2 -22 5 -12 2 9 2 23 0 30 -3 6 -5 -1 -5 -18z"/>
<path d="M2182 540 c0 -14 2 -19 5 -12 2 6 2 18 0 25 -3 6 -5 1 -5 -13z"/>
<path d="M1610 526 c0 -13 3 -17 8 -10 4 7 18 14 32 16 23 3 22 4 -7 9 -28 5
-33 3 -33 -15z"/>
<path d="M1291 535 c0 -5 3 -16 8 -23 7 -11 9 -10 14 3 4 9 3 14 -2 10 -5 -3
-12 1 -14 7 -3 7 -6 9 -6 3z"/>
<path d="M2200 531 c0 -6 4 -13 10 -16 6 -3 7 1 4 9 -7 18 -14 21 -14 7z"/>
<path d="M1940 520 c0 -5 5 -10 10 -10 6 0 10 5 10 10 0 6 -4 10 -10 10 -5 0
-10 -4 -10 -10z"/>
<path d="M1991 514 c0 -11 3 -14 6 -6 3 7 2 16 -1 19 -3 4 -6 -2 -5 -13z"/>
<path d="M2017 509 c7 -7 15 -10 18 -7 3 3 -2 9 -12 12 -14 6 -15 5 -6 -5z"/>
<path d="M1638 503 c7 -3 16 -2 19 1 4 3 -2 6 -13 5 -11 0 -14 -3 -6 -6z"/>
<path d="M1312 393 c-1 -23 -8 -44 -14 -46 -10 -4 -10 -6 0 -6 17 -1 24 20 19
61 -3 30 -4 30 -5 -9z"/>
<path d="M1343 385 c0 -27 2 -38 4 -22 2 15 2 37 0 50 -2 12 -4 0 -4 -28z"/>
<path d="M1872 393 c-2 -35 -6 -43 -21 -43 -11 0 -22 6 -24 13 -4 10 -6 10 -6
0 -1 -7 -13 -13 -27 -13 -14 0 -23 4 -19 9 3 5 0 13 -6 17 -8 4 -9 3 -5 -4 4
-8 0 -12 -11 -13 -40 -1 25 -17 71 -17 52 0 60 8 53 60 -3 30 -4 29 -5 -9z"/>
<path d="M2103 385 c0 -27 2 -38 4 -22 2 15 2 37 0 50 -2 12 -4 0 -4 -28z"/>
<path d="M1985 381 c-7 -24 1 -41 18 -40 9 0 9 2 0 6 -15 5 -18 33 -3 33 5 0
14 -8 19 -17 6 -10 11 -13 11 -7 0 6 -9 19 -19 28 -18 17 -20 16 -26 -3z"/>
<path d="M1129 388 c-1 -2 -3 -13 -4 -25 -2 -15 2 -20 12 -16 12 5 12 7 1 14
-11 7 -10 11 2 19 10 6 11 10 3 10 -7 0 -14 -1 -14 -2z"/>
<path d="M1224 375 c-7 -17 3 -35 19 -34 9 0 9 2 0 6 -15 5 -18 33 -3 33 5 0
14 -8 19 -17 6 -10 11 -13 11 -7 0 12 -20 34 -32 34 -5 0 -11 -7 -14 -15z"/>
<path d="M1435 378 c19 -11 19 -11 0 -19 -19 -7 -19 -8 -1 -8 12 -1 16 -6 12
-17 -3 -8 -2 -12 4 -9 22 14 3 65 -24 65 -6 0 -2 -6 9 -12z"/>
<path d="M1659 381 c8 -5 10 -14 6 -22 -6 -11 -5 -11 5 -2 14 12 6 33 -13 33
-8 0 -7 -3 2 -9z"/>
<path d="M2184 379 c-4 -7 1 -18 12 -26 19 -14 19 -14 0 -29 -21 -15 -10 -20
12 -5 16 10 12 63 -5 68 -6 2 -15 -1 -19 -8z m26 -9 c0 -5 -4 -10 -10 -10 -5
0 -10 5 -10 10 0 6 5 10 10 10 6 0 10 -4 10 -10z"/>
<path d="M2072 355 c0 -16 2 -22 5 -12 2 9 2 23 0 30 -3 6 -5 -1 -5 -18z"/>
<path d="M1550 352 c0 -10 -6 -24 -12 -32 -7 -8 -3 -6 9 4 12 10 19 24 16 32
-7 19 -13 18 -13 -4z"/>
<path d="M1591 353 c-11 -12 -11 -14 0 -12 32 4 49 -2 49 -17 0 -8 4 -13 9
-10 4 3 6 18 3 33 -3 16 -7 22 -9 16 -5 -15 -30 -17 -35 -4 -1 5 -9 2 -17 -6z"/>
<path d="M1688 343 c6 -2 18 -2 25 0 6 3 1 5 -13 5 -14 0 -19 -2 -12 -5z"/>
<path d="M545 247 c-4 -20 -5 -42 -2 -49 3 -7 6 2 6 20 1 19 5 31 11 27 12 -8
13 5 1 24 -7 11 -11 5 -16 -22z"/>
<path d="M606 263 c-6 -14 -5 -15 5 -6 7 7 10 15 7 18 -3 3 -9 -2 -12 -12z"/>
<path d="M1153 235 c0 -27 2 -38 4 -22 2 15 2 37 0 50 -2 12 -4 0 -4 -28z"/>
<path d="M1283 235 c0 -27 2 -38 4 -22 2 15 2 37 0 50 -2 12 -4 0 -4 -28z"/>
<path d="M1350 235 c0 -40 2 -45 23 -44 16 1 18 2 5 6 -10 2 -18 11 -18 18 0
7 8 16 18 18 16 4 16 5 0 6 -10 0 -18 7 -18 15 0 8 8 17 18 19 13 4 11 5 -5 6
-21 1 -23 -4 -23 -44z"/>
<path d="M2403 235 c0 -27 2 -38 4 -22 2 15 2 37 0 50 -2 12 -4 0 -4 -28z"/>
<path d="M2460 235 c0 -43 1 -45 28 -44 23 2 24 2 5 6 -27 5 -31 30 -5 36 16
4 16 5 0 6 -26 2 -22 29 5 34 19 4 18 4 -5 6 -27 1 -28 -1 -28 -44z"/>
<path d="M2263 230 c0 -25 2 -35 4 -22 2 12 2 32 0 45 -2 12 -4 2 -4 -23z"/>
<path d="M847 254 c-9 -9 9 -58 21 -60 7 -1 8 0 2 3 -14 7 -13 40 2 45 8 3 6
6 -4 10 -9 4 -18 4 -21 2z"/>
<path d="M1997 254 c-6 -7 4 -53 13 -59 5 -3 6 4 3 16 -3 12 0 24 6 29 10 5 9
9 -2 13 -8 3 -17 4 -20 1z"/>
<path d="M2148 255 c-6 -7 2 -54 11 -59 7 -5 7 52 -1 59 -2 3 -7 3 -10 0z"/>
<path d="M652 220 c0 -19 2 -27 5 -17 2 9 2 25 0 35 -3 9 -5 1 -5 -18z"/>
<path d="M692 220 c0 -19 2 -27 5 -17 2 9 2 25 0 35 -3 9 -5 1 -5 -18z"/>
<path d="M762 220 c0 -19 2 -27 5 -17 2 9 2 25 0 35 -3 9 -5 1 -5 -18z"/>
<path d="M795 239 c-11 -16 -1 -19 13 -3 7 8 8 14 3 14 -5 0 -13 -5 -16 -11z"/>
<path d="M920 240 c12 -10 11 -11 -7 -7 -19 4 -23 1 -22 -16 0 -12 3 -16 6 -9
2 6 14 12 25 12 22 0 20 22 -3 28 -11 3 -11 1 1 -8z"/>
<path d="M962 220 c0 -19 2 -27 5 -17 2 9 2 25 0 35 -3 9 -5 1 -5 -18z"/>
<path d="M1210 240 c12 -10 11 -11 -7 -7 -19 4 -23 1 -22 -16 0 -12 3 -16 6
-9 2 6 14 12 25 12 22 0 20 22 -3 28 -11 3 -11 1 1 -8z"/>
<path d="M1463 205 c0 -27 2 -38 4 -22 2 15 2 37 0 50 -2 12 -4 0 -4 -28z"/>
<path d="M1493 226 c1 -17 9 -31 17 -33 10 -3 11 -2 4 4 -7 4 -14 19 -17 33
-4 22 -5 21 -4 -4z"/>
<path d="M1532 225 c0 -16 2 -22 5 -12 2 9 2 23 0 30 -3 6 -5 -1 -5 -18z"/>
<path d="M1572 220 c0 -19 2 -27 5 -17 2 9 2 25 0 35 -3 9 -5 1 -5 -18z"/>
<path d="M1603 205 c0 -27 2 -38 4 -22 2 15 2 37 0 50 -2 12 -4 0 -4 -28z"/>
<path d="M1638 232 c9 -10 19 -17 21 -16 6 5 -20 34 -30 34 -5 0 -1 -8 9 -18z"/>
<path d="M1700 241 c12 -9 11 -11 -7 -11 -13 0 -23 -4 -23 -8 0 -11 22 -32 34
-32 5 0 1 7 -10 15 -18 14 -18 14 4 15 25 0 26 21 1 28 -11 3 -11 2 1 -7z"/>
<path d="M1742 220 c0 -19 2 -27 5 -17 2 9 2 25 0 35 -3 9 -5 1 -5 -18z"/>
<path d="M1779 218 c4 -28 6 -29 9 -9 2 13 0 27 -5 32 -6 6 -7 -3 -4 -23z"/>
<path d="M1806 243 c7 -4 14 -19 17 -33 4 -22 5 -21 4 4 -1 17 -9 31 -17 33
-10 3 -11 2 -4 -4z"/>
<path d="M1880 241 c12 -9 11 -11 -7 -11 -13 0 -23 -4 -23 -8 0 -11 22 -32 34
-32 5 0 1 7 -10 15 -18 14 -18 14 4 15 25 0 26 21 1 28 -11 3 -11 2 1 -7z"/>
<path d="M1922 220 c0 -19 2 -27 5 -17 2 9 2 25 0 35 -3 9 -5 1 -5 -18z"/>
<path d="M1946 243 c7 -4 14 -19 17 -33 4 -22 5 -21 4 4 -1 17 -9 31 -17 33
-10 3 -11 2 -4 -4z"/>
<path d="M2100 240 c12 -10 11 -11 -7 -7 -19 4 -23 1 -22 -16 0 -12 3 -16 6
-9 2 6 14 12 25 12 22 0 20 22 -3 28 -11 3 -11 1 1 -8z"/>
<path d="M2320 241 c12 -9 11 -11 -7 -11 -13 0 -23 -4 -23 -8 0 -11 22 -32 34
-32 5 0 1 7 -10 15 -18 14 -18 14 4 15 25 0 26 21 1 28 -11 3 -11 2 1 -7z"/>
<path d="M2550 241 c13 -10 13 -11 0 -11 -10 0 -11 -3 -4 -8 6 -4 14 -14 17
-22 4 -8 5 -2 4 14 -1 16 -9 31 -17 33 -13 4 -13 3 0 -6z"/>
<path d="M2592 230 c0 -14 2 -19 5 -12 2 6 2 18 0 25 -3 6 -5 1 -5 -13z"/>
<path d="M2632 220 c0 -19 2 -27 5 -17 2 9 2 25 0 35 -3 9 -5 1 -5 -18z"/>
<path d="M1412 220 c0 -14 2 -19 5 -12 2 6 2 18 0 25 -3 6 -5 1 -5 -13z"/>
<path d="M2223 221 c1 -14 9 -26 17 -28 10 -3 11 -2 4 4 -7 4 -14 17 -17 28
-5 16 -5 15 -4 -4z"/>
<path d="M570 225 c0 -5 5 -17 10 -25 5 -8 10 -10 10 -5 0 6 -5 17 -10 25 -5
8 -10 11 -10 5z"/>
<path d="M732 210 c0 -14 2 -19 5 -12 2 6 2 18 0 25 -3 6 -5 1 -5 -13z"/>
<path d="M1000 222 c0 -14 23 -32 40 -31 8 0 4 5 -10 11 l-25 11 30 7 30 8
-32 1 c-18 0 -33 -3 -33 -7z"/>
<path d="M1100 221 c0 -10 29 -36 34 -30 1 2 -6 12 -16 22 -10 9 -18 13 -18 8z"/>
<path d="M621 204 c0 -11 3 -14 6 -6 3 7 2 16 -1 19 -3 4 -6 -2 -5 -13z"/>
<path d="M2527 199 c7 -7 15 -10 18 -7 3 3 -2 9 -12 12 -14 6 -15 5 -6 -5z"/>
</g>
</svg>
